<svg width="900" height="540" viewBox="0 0 900 540" fill="none" xmlns="http://www.w3.org/2000/svg">
  <rect width="900" height="540" rx="28" fill="#040A15"/>
  <rect x="34" y="34" width="832" height="472" rx="24" stroke="#915DFF" stroke-opacity="0.36"/>
  <rect x="345" y="165" width="210" height="210" rx="30" fill="#0A1528" stroke="#44F3FF" stroke-width="3"/>
  <rect x="385" y="205" width="130" height="130" rx="18" fill="#10213C" stroke="#915DFF" stroke-opacity="0.7"/>
  <g stroke="#44F3FF" stroke-opacity="0.7" stroke-width="3">
    <path d="M450 80V165"/>
    <path d="M450 375V460"/>
    <path d="M260 270H345"/>
    <path d="M555 270H640"/>
    <path d="M305 125L360 180"/>
    <path d="M595 125L540 180"/>
    <path d="M305 415L360 360"/>
    <path d="M595 415L540 360"/>
  </g>
  <circle cx="450" cy="270" r="26" fill="#A1FCFF"/>
  <circle cx="450" cy="80" r="9" fill="#44F3FF"/>
  <circle cx="450" cy="460" r="9" fill="#44F3FF"/>
  <circle cx="260" cy="270" r="9" fill="#44F3FF"/>
  <circle cx="640" cy="270" r="9" fill="#44F3FF"/>
  <text x="72" y="92" fill="#EAF6FF" font-family="Arial, sans-serif" font-size="26">AI / ROBOTICS CORE PLACEHOLDER</text>
</svg>
