<svg width="900" height="620" viewBox="0 0 900 620" fill="none" xmlns="http://www.w3.org/2000/svg">
  <rect width="900" height="620" rx="28" fill="#040A15"/>
  <rect x="30" y="30" width="840" height="560" rx="24" stroke="#3CD9FF" stroke-opacity="0.35"/>
  <g opacity="0.18" stroke="#56B7FF">
    <path d="M90 80V540"/>
    <path d="M180 80V540"/>
    <path d="M270 80V540"/>
    <path d="M360 80V540"/>
    <path d="M450 80V540"/>
    <path d="M540 80V540"/>
    <path d="M630 80V540"/>
    <path d="M720 80V540"/>
    <path d="M810 80V540"/>
    <path d="M90 120H810"/>
    <path d="M90 200H810"/>
    <path d="M90 280H810"/>
    <path d="M90 360H810"/>
    <path d="M90 440H810"/>
    <path d="M90 520H810"/>
  </g>
  <circle cx="450" cy="310" r="150" stroke="#44F3FF" stroke-opacity="0.7"/>
  <circle cx="450" cy="310" r="105" stroke="#915DFF" stroke-opacity="0.55"/>
  <circle cx="450" cy="310" r="55" stroke="#44F3FF" stroke-opacity="0.8"/>
  <path d="M450 310L610 220" stroke="#44F3FF" stroke-width="3"/>
  <circle cx="610" cy="220" r="9" fill="#A1FCFF"/>
  <circle cx="320" cy="390" r="8" fill="#A1FCFF"/>
  <circle cx="540" cy="420" r="7" fill="#A1FCFF"/>
  <rect x="108" y="106" width="180" height="52" rx="12" fill="#081120" stroke="#44F3FF" stroke-opacity="0.4"/>
  <text x="132" y="138" fill="#EAF6FF" font-family="Arial, sans-serif" font-size="20">SYSTEM GRID</text>
</svg>
