<svg width="900" height="540" viewBox="0 0 900 540" fill="none" xmlns="http://www.w3.org/2000/svg">
  <rect width="900" height="540" rx="28" fill="#040A15"/>
  <rect x="34" y="34" width="832" height="472" rx="24" stroke="#44F3FF" stroke-opacity="0.32"/>
  <g opacity="0.24" stroke="#56B7FF">
    <path d="M100 120H800"/>
    <path d="M100 190H800"/>
    <path d="M100 260H800"/>
    <path d="M100 330H800"/>
    <path d="M100 400H800"/>
    <path d="M180 80V460"/>
    <path d="M290 80V460"/>
    <path d="M400 80V460"/>
    <path d="M510 80V460"/>
    <path d="M620 80V460"/>
    <path d="M730 80V460"/>
  </g>
  <path d="M210 390L335 230L450 300L570 170L700 250" stroke="#44F3FF" stroke-width="5" stroke-linecap="round"/>
  <circle cx="210" cy="390" r="12" fill="#A1FCFF"/>
  <circle cx="335" cy="230" r="12" fill="#A1FCFF"/>
  <circle cx="450" cy="300" r="12" fill="#A1FCFF"/>
  <circle cx="570" cy="170" r="12" fill="#A1FCFF"/>
  <circle cx="700" cy="250" r="12" fill="#A1FCFF"/>
  <text x="74" y="92" fill="#EAF6FF" font-family="Arial, sans-serif" font-size="26">CYBER / EW VISUAL PLACEHOLDER</text>
</svg>
